<svg width="32" height="42" viewBox="0 0 32 42" fill="none" xmlns="http://www.w3.org/2000/svg">
<path fill-rule="evenodd" clip-rule="evenodd" d="M16 42C16 42 31.75 27.0743 31.75 15.75C31.75 11.5728 30.0906 7.56677 27.1369 4.61307C24.1832 1.65937 20.1772 0 16 0C11.8228 0 7.81677 1.65937 4.86307 4.61307C1.90937 7.56677 0.25 11.5728 0.25 15.75C0.25 27.0743 16 42 16 42ZM16 23.625C18.0886 23.625 20.0916 22.7953 21.5685 21.3185C23.0453 19.8416 23.875 17.8386 23.875 15.75C23.875 13.6614 23.0453 11.6584 21.5685 10.1815C20.0916 8.70469 18.0886 7.875 16 7.875C13.9114 7.875 11.9084 8.70469 10.4315 10.1815C8.95469 11.6584 8.125 13.6614 8.125 15.75C8.125 17.8386 8.95469 19.8416 10.4315 21.3185C11.9084 22.7953 13.9114 23.625 16 23.625Z" fill="#FFDFC0"/>
</svg>
